<svg width="31" height="35" viewBox="0 0 31 35" fill="none" xmlns="http://www.w3.org/2000/svg">
<path d="M28.3088 17.5C28.3049 17.6842 28.2745 17.8665 28.2187 18.0396C28.1889 18.1012 28.1545 18.1598 28.1158 18.2146C28.0821 18.2954 28.0434 18.3734 28 18.4479L20.2794 28.6563C19.9806 29.0522 19.518 29.2375 19.0661 29.1422C18.6141 29.0469 18.2413 28.6855 18.0881 28.1942C17.9349 27.703 18.0247 27.1564 18.3235 26.7604L24.2297 18.9584H3.86025C3.14959 18.9584 2.57349 18.3054 2.57349 17.5C2.57349 16.6946 3.14959 16.0417 3.86025 16.0417H24.2297L18.3235 8.23961C18.0247 7.84364 17.9349 7.29708 18.0881 6.8058C18.2413 6.31453 18.6141 5.95319 19.0661 5.85789C19.518 5.76259 19.9806 5.94781 20.2794 6.34377L28 16.5521C28.0434 16.6267 28.0821 16.7046 28.1158 16.7854C28.1545 16.8403 28.1889 16.8988 28.2187 16.9604C28.2745 17.1335 28.3049 17.3158 28.3088 17.5Z" fill="white"/>
</svg>
