<svg width="120" height="120" viewBox="0 0 120 120" fill="none" xmlns="http://www.w3.org/2000/svg">
<path d="M25.6263 99.7156L3.42847 104.571L8.97792 90.004V46.3021C8.97792 45.0142 9.5626 43.7791 10.6033 42.8685C11.644 41.9579 13.0556 41.4463 14.5274 41.4463H43V71C43 73.7614 45.2284 75.9787 47.9898 75.9563C57.2727 75.8813 76.1971 75.7975 77 76.5C78.0407 77.4106 75.5714 76.2122 75.5714 77.5V94.8598C75.5714 96.1476 74.9867 97.3827 73.946 98.2933C72.9053 99.204 71.4937 99.7156 70.0219 99.7156H25.6263Z" stroke="#41415A" stroke-width="5" stroke-linecap="round" stroke-linejoin="round"/>
<path d="M93.0522 76.2693L115.25 81.1251L109.701 66.5577V22.8558C109.701 21.5679 109.116 20.3329 108.075 19.4222C107.034 18.5116 105.623 18 104.151 18H48.6565C47.1847 18 45.7732 18.5116 44.7325 19.4222C43.6918 20.3329 43.1071 21.5679 43.1071 22.8558V71.4135C43.1071 72.7013 43.6918 73.9364 44.7325 74.8471C45.7732 75.7577 47.1847 76.2693 48.6565 76.2693H93.0522Z" stroke="#41415A" stroke-width="5" stroke-linecap="round" stroke-linejoin="round"/>
<path d="M94.4396 49.5628C92.9072 49.5628 91.6649 48.4758 91.6649 47.1349C91.6649 45.794 92.9072 44.707 94.4396 44.707C95.9721 44.707 97.2144 45.794 97.2144 47.1349C97.2144 48.4758 95.9721 49.5628 94.4396 49.5628Z" fill="white" stroke="#41415A" stroke-width="3" stroke-linecap="round" stroke-linejoin="round"/>
<path d="M76.4037 49.5628C74.8713 49.5628 73.629 48.4758 73.629 47.1349C73.629 45.794 74.8713 44.707 76.4037 44.707C77.9362 44.707 79.1785 45.794 79.1785 47.1349C79.1785 48.4758 77.9362 49.5628 76.4037 49.5628Z" fill="white" stroke="#41415A" stroke-width="3" stroke-linecap="round" stroke-linejoin="round"/>
<path d="M58.3681 49.5628C56.8357 49.5628 55.5934 48.4758 55.5934 47.1349C55.5934 45.794 56.8357 44.707 58.3681 44.707C59.9005 44.707 61.1428 45.794 61.1428 47.1349C61.1428 48.4758 59.9005 49.5628 58.3681 49.5628Z" fill="white" stroke="#41415A" stroke-width="3" stroke-linecap="round" stroke-linejoin="round"/>
</svg>
