<svg width="110" height="110" viewBox="0 0 110 110" fill="none" xmlns="http://www.w3.org/2000/svg">
<g clip-path="url(#clip0_140_320)">
<path d="M37.4121 65.4563H8.64282V106.072H37.4121" stroke="#41415A" stroke-width="5" stroke-linecap="round" stroke-linejoin="round"/>
<path d="M67.8736 45.1484H37.4121V106.072H67.8736" stroke="#41415A" stroke-width="5" stroke-linecap="round" stroke-linejoin="round"/>
<path d="M96.6428 18.0715H67.8735V106.072H96.6428V18.0715Z" stroke="#41415A" stroke-width="5" stroke-linecap="round" stroke-linejoin="round"/>
<path d="M22.3929 48.1248C22.7153 48.1316 23.0036 48.3278 23.1293 48.6248L24.2015 50.908L26.5834 51.2761C26.8872 51.3216 27.1397 51.5338 27.2377 51.825C27.3302 52.1115 27.2587 52.426 27.0502 52.6433L25.306 54.4275L25.7152 56.9646C25.7731 57.2795 25.6425 57.5993 25.3803 57.783C25.1227 57.9616 24.7853 57.9776 24.5121 57.824L22.3929 56.6531L20.265 57.8406C20.146 57.9107 20.0096 57.9475 19.8715 57.947C19.7019 57.9482 19.5359 57.8966 19.3969 57.7996C19.1347 57.616 19.0042 57.296 19.0619 56.9812L19.4789 54.4431L17.7279 52.6589C17.5121 52.439 17.4381 52.117 17.5365 51.825C17.635 51.533 17.8888 51.3206 18.1937 51.2761L20.5756 50.908L21.6566 48.5994C21.7897 48.3123 22.0765 48.1271 22.3929 48.1248ZM21.8685 52.0046C21.7525 52.2495 21.523 52.4209 21.2553 52.4626L20.0111 52.6511L20.9027 53.5925C21.0839 53.7788 21.1666 54.0402 21.1244 54.2966L20.9193 55.5808L21.9594 55.0085C22.2125 54.8624 22.5245 54.8624 22.7777 55.0085L23.8246 55.5808L23.6127 54.2966C23.5704 54.0402 23.6522 53.7788 23.8334 53.5925L24.766 52.6511L23.5306 52.4626C23.2597 52.4235 23.0262 52.2518 22.9086 52.0046L22.3929 50.9001L21.8685 52.0046Z" fill="#41415A"/>
<path d="M52.2499 28.4819C52.5723 28.4887 52.8605 28.6849 52.9862 28.9819L54.0584 31.2651L56.4403 31.6333C56.7442 31.6787 56.9966 31.8909 57.0946 32.1821C57.1871 32.4687 57.1156 32.7832 56.9071 33.0005L55.1639 34.7847L55.5731 37.3218C55.6309 37.6367 55.4994 37.9565 55.2372 38.1401C54.9798 38.3186 54.6431 38.3345 54.37 38.1812L52.2499 37.0103L50.1219 38.1978C50.003 38.2677 49.8673 38.3046 49.7293 38.3042C49.5599 38.3055 49.3938 38.2537 49.2547 38.1567C48.9925 37.9731 48.8611 37.6532 48.9188 37.3384L49.3358 34.8003L47.5848 33.0161C47.3691 32.7962 47.2951 32.4741 47.3934 32.1821C47.4919 31.89 47.7465 31.6776 48.0516 31.6333L50.4325 31.2651L51.5135 28.9565C51.6466 28.6694 51.9333 28.4843 52.2499 28.4819ZM51.7264 32.3618C51.6104 32.6068 51.38 32.7781 51.1122 32.8198L49.868 33.0083L50.7606 33.9497C50.9416 34.1359 51.0235 34.3975 50.9813 34.6538L50.7762 35.938L51.8163 35.3657C52.0695 35.2196 52.3814 35.2195 52.6346 35.3657L53.6825 35.938L53.4696 34.6538C53.4273 34.3974 53.5091 34.1359 53.6903 33.9497L54.6229 33.0083L53.3875 32.8198C53.1166 32.7807 52.8831 32.609 52.7655 32.3618L52.2499 31.2573L51.7264 32.3618Z" fill="#41415A"/>
<path d="M82.107 3.33887C82.4295 3.34563 82.7176 3.54186 82.8434 3.83887L83.9156 6.12207L86.2975 6.49023C86.6013 6.53563 86.8537 6.74786 86.9518 7.03906C87.0443 7.32567 86.9728 7.64011 86.7643 7.85742L85.0211 9.6416L85.4303 12.1787C85.4881 12.4936 85.3566 12.8134 85.0943 12.9971C84.837 13.1756 84.5002 13.1914 84.2271 13.0381L82.107 11.8672L79.9791 13.0547C79.8602 13.1247 79.7245 13.1615 79.5865 13.1611C79.417 13.1624 79.251 13.1106 79.1119 13.0137C78.8497 12.8301 78.7183 12.5102 78.776 12.1953L79.193 9.65723L77.442 7.87305C77.2263 7.6531 77.1522 7.33102 77.2506 7.03906C77.3491 6.74696 77.6037 6.53455 77.9088 6.49023L80.2896 6.12207L81.3707 3.81348C81.5038 3.52634 81.7905 3.34125 82.107 3.33887ZM81.5836 7.21875C81.4675 7.46375 81.2372 7.63507 80.9693 7.67676L79.7252 7.86523L80.6178 8.80664C80.7988 8.99286 80.8807 9.25446 80.8385 9.51074L80.6334 10.7949L81.6734 10.2227C81.9267 10.0765 82.2386 10.0765 82.4918 10.2227L83.5396 10.7949L83.3268 9.51074C83.2845 9.25438 83.3663 8.99287 83.5475 8.80664L84.4801 7.86523L83.2447 7.67676C82.9738 7.63763 82.7403 7.46591 82.6227 7.21875L82.107 6.11426L81.5836 7.21875Z" fill="#41415A"/>
</g>
<defs>
<clipPath id="clip0_140_320">
<rect width="110" height="110" fill="white"/>
</clipPath>
</defs>
</svg>
