<svg width="110" height="110" viewBox="0 0 110 110" fill="none" xmlns="http://www.w3.org/2000/svg">
<path d="M78.5714 68.5V90.357C78.5714 94.5247 76.9158 98.5217 73.9688 101.469C71.0218 104.416 67.0249 106.071 62.8572 106.071H3.92859C8.09628 106.071 12.0933 104.416 15.0403 101.469C17.9873 98.5217 19.6429 94.5247 19.6429 90.357V19.6428C19.6429 15.4751 21.2985 11.4781 24.2455 8.53107C27.1925 5.58407 31.1895 3.92847 35.3572 3.92847H92.3214" stroke="#41415A" stroke-width="5" stroke-linecap="round" stroke-linejoin="round"/>
<path d="M78.5714 27.4999H102.143C103.185 27.4999 104.184 27.086 104.921 26.3492C105.658 25.6125 106.071 24.6132 106.071 23.5713V17.6785C106.071 14.0317 104.623 10.5344 102.044 7.95575C99.4655 5.37712 95.9681 3.92847 92.3214 3.92847C88.6747 3.92847 85.1773 5.37712 82.5987 7.95575C80.0201 10.5344 78.5714 14.0317 78.5714 17.6785V27.4999ZM78.5714 27.4999V33" stroke="#41415A" stroke-width="5" stroke-linecap="round" stroke-linejoin="round"/>
<path d="M47.1428 31.4285H58.9285" stroke="#41415A" stroke-width="5" stroke-linecap="round" stroke-linejoin="round"/>
<path d="M39.2858 55H58.9286" stroke="#41415A" stroke-width="5" stroke-linecap="round" stroke-linejoin="round"/>
<path d="M39.2858 78.5713H58.9286" stroke="#41415A" stroke-width="5" stroke-linecap="round" stroke-linejoin="round"/>
<path d="M79.9812 37.3117C80.9387 36.4868 82.117 35.4558 83.5164 35.9123C84.9159 36.369 85.3136 37.9306 85.5935 39.1828C85.6819 39.5364 85.8146 40.0817 85.9177 40.3469C86.3247 40.3755 86.7334 40.3755 87.1404 40.3469C88.422 40.229 89.9986 40.0961 90.8826 41.3039C91.7665 42.5119 91.1334 43.9564 90.6472 45.1349C90.4733 45.5104 90.3297 45.8992 90.2195 46.298C90.5337 46.5359 90.8637 46.7526 91.2068 46.9465C92.3116 47.5357 93.6959 48.4197 93.696 49.8928C93.696 51.366 92.3117 52.2503 91.2068 52.9133C90.8637 53.1071 90.5337 53.3239 90.2195 53.5617C90.3297 53.9605 90.4733 54.3494 90.6472 54.7248C91.1334 55.9034 91.7518 57.3625 90.8826 58.5558C90.0133 59.7489 88.422 59.6307 87.1404 59.5129C86.7334 59.4842 86.3247 59.4842 85.9177 59.5129C85.8146 59.7781 85.6819 60.3234 85.5935 60.6769C85.3136 61.9292 84.9454 63.4908 83.5164 63.9474C83.2928 64.0211 83.0593 64.0611 82.824 64.0656C81.7346 63.9178 80.7303 63.3967 79.9812 62.592C79.6665 62.2618 79.3264 61.9566 78.9646 61.6789C78.607 61.9189 78.2669 62.1843 77.948 62.4738C76.9904 63.2988 75.7967 64.3305 74.4119 63.9474C73.0273 63.5643 72.6146 61.8851 72.3347 60.633C72.2463 60.2794 72.1136 59.7341 72.0105 59.4689C71.6035 59.4403 71.1948 59.4403 70.7878 59.4689C69.5062 59.5868 67.9296 59.7189 67.0457 58.5109C66.1622 57.303 66.7959 55.8593 67.282 54.6808C67.456 54.3053 67.5985 53.9157 67.7087 53.5168C67.3946 53.279 67.0644 53.0631 66.7214 52.8693C65.6166 52.2506 64.2322 51.3659 64.2322 49.8928C64.2323 48.4198 65.6166 47.5357 66.7214 46.9465C67.0645 46.7526 67.3945 46.5359 67.7087 46.298C67.5985 45.8993 67.4559 45.5103 67.282 45.1349C66.7958 43.9564 66.1765 42.4972 67.0457 41.3039C67.9148 40.1106 69.5062 40.229 70.7878 40.3469C71.1948 40.3755 71.6035 40.3755 72.0105 40.3469C72.1136 40.0817 72.2463 39.5364 72.3347 39.1828C72.6146 37.9306 72.983 36.3691 74.4119 35.9123C75.8409 35.4556 76.9904 36.4867 77.948 37.3117C78.267 37.6013 78.6069 37.8676 78.9646 38.1076C79.3224 37.8676 79.6622 37.6013 79.9812 37.3117ZM82.4851 38.9621C82.2642 39.1241 82.0289 39.3305 81.8669 39.4777C81.0862 40.2967 80.0433 40.8172 78.9197 40.9504C77.7962 40.8171 76.7541 40.2966 75.9734 39.4777C75.8114 39.3305 75.5761 39.1241 75.3552 38.9621C75.2816 39.242 75.2081 39.5663 75.1492 39.8019C75.0459 40.9342 74.5194 41.9863 73.6755 42.7482C72.693 43.2917 71.546 43.4586 70.449 43.2189H69.5945L69.9929 44.0002C70.5679 44.9709 70.7669 46.1191 70.5525 47.2267C70.0822 48.2315 69.2585 49.0285 68.239 49.466C68.0181 49.5986 67.7091 49.7903 67.4587 49.967C67.7091 50.1437 68.0181 50.3354 68.239 50.468C69.2585 50.9054 70.0823 51.7024 70.5525 52.7072C70.7667 53.8146 70.5677 54.9623 69.9929 55.9328L69.6833 56.7141H70.5378C71.6347 56.4745 72.781 56.6424 73.7634 57.1857C74.6074 57.9478 75.1338 58.9996 75.2371 60.132C75.2371 60.3677 75.3695 60.692 75.4431 60.9719C75.6641 60.8098 75.9002 60.6036 76.0623 60.4562C76.7928 59.5535 77.8224 58.9421 78.9646 58.7326C80.098 58.8856 81.1414 59.4334 81.9109 60.2795C82.0729 60.4268 82.3082 60.6331 82.5291 60.7951C82.6027 60.5152 82.6772 60.191 82.7361 59.9553C82.8393 58.823 83.3649 57.771 84.2087 57.009C85.1913 56.4655 86.3383 56.2976 87.4353 56.5373H88.2898L87.9802 55.756C87.4054 54.7855 87.2064 53.6379 87.4207 52.5305C87.8908 51.5258 88.7138 50.7287 89.7332 50.2912C89.9099 50.2617 90.22 50.0695 90.4705 49.8928C90.22 49.716 89.9102 49.5244 89.6892 49.3918C88.6698 48.9543 87.8469 48.1573 87.3767 47.1525C87.1808 46.0686 87.3791 44.9504 87.9363 44.0002L88.2458 43.2189H87.3914C86.2944 43.4586 85.1473 43.2917 84.1648 42.7482C83.3209 41.9863 82.7945 40.9342 82.6912 39.8019C82.6912 39.5663 82.5588 39.242 82.4851 38.9621ZM82.2351 45.2971C82.7411 44.6652 83.6621 44.5593 84.2976 45.0607C84.9294 45.5667 85.0343 46.4878 84.533 47.1232L78.6404 54.4894C78.3823 54.818 77.9967 55.0212 77.5798 55.049H77.491C77.0995 55.0512 76.7231 54.8979 76.4451 54.6223L73.4988 51.676C72.9211 51.0983 72.9211 50.1609 73.4988 49.5832C74.0764 49.0059 75.013 49.0059 75.5906 49.5832L77.3728 51.3664L82.2351 45.2971Z" fill="#41415A"/>
</svg>
