<svg width="110" height="110" viewBox="0 0 110 110" fill="none" xmlns="http://www.w3.org/2000/svg">
<path d="M83.6 12.1001H26.4C25.0813 12.1363 23.7896 12.4823 22.6294 13.1102C21.4692 13.7381 20.473 14.6302 19.7214 15.7144L5.42141 35.5144C4.35956 37.0149 3.82927 38.8271 3.91468 40.6633C4.00008 42.4995 4.6963 44.2546 5.89283 45.6501L48.7928 95.0715C49.5273 96.0179 50.4684 96.7838 51.5442 97.3106C52.62 97.8375 53.8021 98.1114 55 98.1114C56.1979 98.1114 57.3799 97.8375 58.4557 97.3106C59.5316 96.7838 60.4727 96.0179 61.2071 95.0715L104.107 45.6501C105.304 44.2546 106 42.4995 106.085 40.6633C106.171 38.8271 105.64 37.0149 104.579 35.5144L90.2785 15.7144C89.527 14.6302 88.5308 13.7381 87.3706 13.1102C86.2104 12.4823 84.9187 12.1363 83.6 12.1001V12.1001Z" stroke="#41415A" stroke-width="5" stroke-linecap="round" stroke-linejoin="round"/>
<path d="M50.9142 12.0215L31.7428 41.7215L54.9999 97.9001" stroke="#41415A" stroke-width="5" stroke-linecap="round" stroke-linejoin="round"/>
<path d="M59.3214 12.0215L78.4143 41.7215L55 97.9001" stroke="#41415A" stroke-width="5" stroke-linecap="round" stroke-linejoin="round"/>
<path d="M4.08569 41.7214H105.914" stroke="#41415A" stroke-width="5" stroke-linecap="round" stroke-linejoin="round"/>
</svg>
